<?xml version="1.0" encoding="UTF-8" standalone="no"?>
<svg
   xmlns:dc="http://purl.org/dc/elements/1.1/"
   xmlns:cc="http://creativecommons.org/ns#"
   xmlns:rdf="http://www.w3.org/1999/02/22-rdf-syntax-ns#"
   xmlns:svg="http://www.w3.org/2000/svg"
   xmlns="http://www.w3.org/2000/svg"
   xml:space="preserve"
   enable-background="new 0 0 1200 733.872"
   viewBox="0 0 1200 733.872"
   height="733.872px"
   width="1200px"
   y="0px"
   x="0px"
   id="Capa_2"
   version="1.1"><metadata
   id="metadata169"><rdf:RDF><cc:Work
       rdf:about=""><dc:format>image/svg+xml</dc:format><dc:type
         rdf:resource="http://purl.org/dc/dcmitype/StillImage" /><dc:title></dc:title></cc:Work></rdf:RDF></metadata><defs
   id="defs167" />
<path
   style="fill:#000000"
   id="path120"
   d="M1034.229,605.872c-8.334,0-20.477-2.381-20.477-18.691v-23.334h-7.5v-11.07h7.5v-15.834h11.071v15.834  h28.334v11.07h-28.334v20.717c0,5.117,0.595,10.355,9.523,10.355c7.737,0,19.643-5.238,23.929-7.143l1.905,10.951  C1052.443,602.061,1043.276,605.872,1034.229,605.872z"
   fill="#EC6B18" />
<path
   style="fill:#000000"
   id="path122"
   d="M970.154,604.442v-11.07h9.047v-22.857c0-4.645-0.715-8.334-8.689-8.334c-3.452,0-11.071,1.43-16.905,6.549  v24.643h9.286v11.072h-29.405v-11.072h9.167v-29.523h-9.405v-11.07h20.357v3.809c4.881-3.215,11.548-5.355,17.977-5.355  c6.191,0,11.905,1.666,15.597,6.666c1.784,2.977,2.977,6.43,2.977,10.119v25.357h8.928v11.07h-28.93V604.442z"
   fill="#EC6B18" />
<path
   style="fill:#000000"
   id="path124"
   d="M895.221,605.872c-19.523,0-29.523-12.979-29.523-27.025c0-18.332,15.596-27.619,29.286-27.619  c15,0,27.5,9.883,27.5,24.406c0,2.5-0.237,6.666-0.356,7.855H876.77c0.595,4.049,4.405,11.43,18.452,11.43  c8.69,0,17.024-3.096,24.287-6.785l5,9.047C916.055,602.18,905.577,605.872,895.221,605.872z M911.293,570.631  c-3.097-6.547-10.238-8.334-16.904-8.334c-6.906,0-14.406,3.215-16.787,10.119h34.168L911.293,570.631z"
   fill="#EC6B18" />
<path
   style="fill:#000000"
   id="path126"
   d="M842.48,604.442v-37.619c0-1.189-1.072-4.523-5-4.523c-2.024,0-5.238,1.07-8.096,4.881v26.191h7.143v11.07  h-18.096V568.37c0-2.381-0.952-6.07-5.357-6.07c-2.856,0-5.595,1.904-7.737,3.93v27.143h9.287v11.072h-29.406v-11.072h9.167v-29.523  h-9.167v-11.07h20.119v2.619c2.263-2.738,5.834-4.168,9.523-4.168c2.738,0,7.145,0.834,10.238,5.715  c3.095-3.572,7.976-5.715,12.856-5.715c9.645,0,15.477,7.262,15.477,16.07v26.072h6.787v11.072H842.48V604.442z"
   fill="#EC6B18" />
<path
   style="fill:#000000"
   id="path128"
   d="M749.284,604.442v-11.07h9.048v-22.857c0-4.645-0.714-8.334-8.689-8.334c-3.453,0-11.072,1.43-16.904,6.549  v24.643h9.285v11.072h-29.405v-11.072h9.167v-29.523h-9.403v-11.07h20.356v3.809c4.881-3.215,11.547-5.355,17.977-5.355  c6.189,0,11.904,1.666,15.596,6.666c1.786,2.977,2.976,6.43,2.976,10.119v25.357h8.931v11.07h-28.933V604.442z"
   fill="#EC6B18" />
<path
   style="fill:#000000"
   id="path130"
   d="M648.995,604.442v-11.07h19.882v-29.525H652.21v-11.07h27.737v40.596h19.524v11.072h-50.477V604.442z   M667.328,545.75v-17.738h12.619v17.738H667.328z"
   fill="#EC6B18" />
<path
   style="fill:#000000"
   id="path132"
   d="M614.184,604.442v-5.596c-1.786,1.072-5.357,3.334-5.357,3.334c-3.334,2.023-9.284,3.689-14.523,3.689  c-13.333,0-20.478-9.404-20.478-17.145c0-2.262,1.071-18.57,27.5-18.57c4.166,0,8.811,0.357,12.857,0.834v-1.43  c0-7.143-8.812-7.381-11.667-7.381c-7.024,0-13.929,2.023-20.477,4.645l-4.286-9.525c7.618-3.213,16.548-6.189,25.237-6.189  c2.381,0,15.715,0,20.119,9.523c1.787,3.811,1.787,8.572,1.787,12.977v19.764h9.166v11.07H614.184z M614.184,582.061  c-3.453-0.238-7.857-0.953-14.524-0.953c-6.07,0-14.881,1.904-14.881,7.738c0,3.811,4.644,5.953,9.405,5.953  c7.739,0,14.524-4.049,20-9.168V582.061L614.184,582.061z"
   fill="#EC6B18" />
<path
   style="fill:#000000"
   id="path134"
   d="M535.727,605.872c-8.333,0-20.477-2.381-20.477-18.691v-23.334h-7.5v-11.07h7.5v-15.834h11.071v15.834  h28.333v11.07h-28.333v20.717c0,5.117,0.595,10.355,9.524,10.355c7.737,0,19.643-5.238,23.929-7.143l1.905,10.951  C553.942,602.061,544.775,605.872,535.727,605.872z"
   fill="#EC6B18" />
<path
   style="fill:#000000"
   id="path136"
   d="M481.699,566.346c-0.356-2.977-0.833-4.168-3.81-4.168c-2.619,0-5.478,1.311-7.857,2.619  c-4.881,2.738-9.167,6.072-13.453,9.645v18.93h21.667v11.07H432.77v-11.07h12.738v-29.525h-12.857v-11.07h23.929v8.334  c5.953-4.764,13.097-10,21.311-10s11.786,4.404,12.856,7.381c0.715,1.904,1.429,3.928,1.429,6.189L481.699,566.346z"
   fill="#EC6B18" />
<path
   style="fill:#000000"
   id="path138"
   d="M390.576,605.872c-19.523,0-29.523-12.979-29.523-27.025c0-18.332,15.595-27.619,29.286-27.619  c15,0,27.5,9.883,27.5,24.406c0,2.5-0.238,6.666-0.357,7.855h-45.358c0.596,4.049,4.405,11.43,18.453,11.43  c8.691,0,17.024-3.096,24.286-6.785l5,9.047C411.41,602.18,400.935,605.872,390.576,605.872z M406.649,570.631  c-3.095-6.547-10.238-8.334-16.905-8.334c-6.904,0-14.404,3.215-16.786,10.119h34.168L406.649,570.631z"
   fill="#EC6B18" />
<path
   style="fill:#000000"
   id="path140"
   d="M321.36,605.872c-8.333,0-20.476-2.381-20.476-18.691v-23.334h-7.5v-11.07h7.5v-15.834h11.07v15.834h28.333  v11.07h-28.333v20.717c0,5.117,0.596,10.355,9.524,10.355c7.738,0,19.643-5.238,23.929-7.143l1.905,10.951  C339.574,602.061,330.407,605.872,321.36,605.872z"
   fill="#EC6B18" />
<path
   style="fill:#000000"
   id="path142"
   d="M255.451,604.442v-11.07h9.047v-22.857c0-4.645-0.714-8.334-8.69-8.334c-3.453,0-11.072,1.43-16.905,6.549  v24.643h9.286v11.072h-29.404v-11.072h9.167v-29.523h-9.405v-11.07h20.356v3.809c4.882-3.215,11.548-5.355,17.977-5.355  c6.19,0,11.905,1.666,15.596,6.666c1.786,2.977,2.977,6.43,2.977,10.119v25.357h8.929v11.07h-28.929V604.442z"
   fill="#EC6B18" />
<path
   style="fill:#000000"
   id="path144"
   d="M143.137,604.442v-11.07h9.405v-45.953h-9.167v-11.072h59.644v25.238h-11.072v-14.166h-28.452v16.904h12.618  v-7.857h11.072v26.668h-11.072v-7.857h-12.618v18.096h28.452v-13.809h11.072v24.881h-59.882V604.442z"
   fill="#EC6B18" />
<circle
   style="fill:#000000"
   id="circle146"
   r="31.356"
   cy="119.273"
   cx="910.737"
   fill="#EC6B18" />
<circle
   style="fill:#000000"
   id="circle148"
   r="31.356"
   cy="119.273"
   cx="358.848"
   fill="#EC6B18" />
<polygon
   style="fill:#000000"
   id="polygon150"
   points="1056.63,302.172 1031.928,302.172 1031.928,267.713 985.87,267.713 985.87,302.172 969.543,302.172   969.543,342.658 985.87,342.658 985.87,429.329 1031.928,429.329 1031.928,342.658 1056.63,342.658 "
   fill="#EC6B18" />
<rect
   style="fill:#000000"
   id="rect152"
   height="125.422"
   width="45.763"
   fill="#EC6B18"
   y="302.172"
   x="887.856" />
<polygon
   style="fill:#000000"
   id="polygon154"
   points="782.56,246.24 782.56,316.858 716.017,316.858 716.017,246.24 668.56,246.24 668.56,427.594   716.017,427.594 716.017,353.714 782.56,353.714 782.56,427.594 830.017,427.594 830.017,246.24 "
   fill="#EC6B18" />
<path
   style="fill:#000000"
   id="path156"
   d="M522.201,303.255v18.386c-4.478-6.928-9.071-11.39-15.787-15.387c-6.714-3.997-15.829-5.995-23.343-5.995  c-9.915,0-18.466,1.999-25.66,5.995c-7.193,3.997-14.397,9.135-19.438,15.472c-4.647,5.842-9.349,13.94-11.9,22.298  c-2.513,8.232-3.116,17.053-3.116,26.113c0,8.885,1.235,17.32,3.717,25.313c2.477,7.993,5.508,12.536,10.792,18.184  c6.391,6.83,13.448,11.447,20.267,14.389c7.002,3.021,15.426,4.197,23.902,4.197c8.311,0,14.932-1.914,21.104-4.131  c6.104-2.191,13.059-5.271,17.868-10.059v11.459c0,9.949-4.008,17.447-7.676,21.049c-4.048,3.975-10.964,6.133-17.468,6.129  c-7.989-0.006-11.065-1.363-14.792-3.463c-3.966-2.063-6.5-6.043-6.833-9.615h-50.121c0.314,6.41,6.423,17.434,9.872,21.674  c3.502,4.309,10.088,9.949,15.229,12.924c5.691,3.293,14.069,6.795,22.145,8.926c8.07,2.131,17.387,3.197,27.938,3.197  c14.869,0,24.818-1.824,33.853-5.463c9.029-3.643,15.091-9.465,20.023-15.453c5.047-6.129,9.112-14.168,10.395-22.516  c1.277-8.348,1.918-18.74,1.918-31.176V303.255H522.201z M496.022,396.021c-16.093,0-29.138-13.044-29.138-29.138  c0-16.093,13.045-29.138,29.138-29.138s29.139,13.045,29.139,29.138C525.16,382.977,512.115,396.021,496.022,396.021z"
   fill="#EC6B18" />
<rect
   style="fill:#000000"
   id="rect158"
   height="125.422"
   width="45.763"
   fill="#EC6B18"
   y="302.172"
   x="336.313" />
<g
   style="fill:#000000"
   id="g162">
	<path
   style="fill:#000000"
   id="path160"
   d="M153.733,247.034h71.574c17.064,0,30.473,4.507,40.231,13.521c9.756,9.014,14.635,19.672,14.635,31.979   c0,15.775-7.545,27.865-22.634,36.271c11.376,3.3,20.086,9.115,26.129,17.446c6.044,8.333,9.064,18.055,9.064,29.162   c0,15.797-4.938,28.643-14.813,38.537s-24.411,14.842-43.608,14.842h-80.58L153.733,247.034L153.733,247.034z M200.971,282.341   v36.902h11.567c6.667-0.432,10.81-1.864,14.523-5.595c3.712-3.729,5.569-7.412,5.569-13.052c0-5.55-1.857-9.148-5.569-12.791   c-3.714-3.643-9.219-5.532-14.523-5.464H200.971z M201.971,352.549v39.936h21.914c5.002-0.156,9.547-1.67,14.367-5.01   c4.817-3.338,6.873-9.367,6.873-15.369c0-5.345-2.292-10.339-6.873-14.027c-4.583-3.686-8.519-4.977-14.367-5.529L201.971,352.549   L201.971,352.549z"
   fill="#EC6B18" />
</g>
</svg>